<svg width="158" height="158" viewBox="0 0 158 158" fill="none" xmlns="http://www.w3.org/2000/svg">
<mask id="mask0_14_22" style="mask-type:alpha" maskUnits="userSpaceOnUse" x="23" y="23" width="113" height="112">
<path d="M133.627 23.1385H25.9038C24.7992 23.1385 23.9038 24.034 23.9038 25.1385V132.862C23.9038 133.966 24.7992 134.862 25.9038 134.862H133.627C134.731 134.862 135.627 133.966 135.627 132.862V25.1385C135.627 24.034 134.731 23.1385 133.627 23.1385Z" fill="white"/>
</mask>
<g mask="url(#mask0_14_22)">
<path d="M133.627 23.1385H25.9038C24.7992 23.1385 23.9038 24.034 23.9038 25.1385V132.862C23.9038 133.966 24.7992 134.862 25.9038 134.862H133.627C134.731 134.862 135.627 133.966 135.627 132.862V25.1385C135.627 24.034 134.731 23.1385 133.627 23.1385Z" stroke="#111111" stroke-opacity="0.6" stroke-width="46"/>
</g>
<mask id="mask1_14_22" style="mask-type:alpha" maskUnits="userSpaceOnUse" x="0" y="0" width="158" height="158">
<path d="M156.586 77.5859L80.4142 1.41421C79.6332 0.633165 78.3668 0.633165 77.5858 1.41421L1.41412 77.5859C0.633076 78.3669 0.633076 79.6333 1.41412 80.4143L77.5858 156.586C78.3668 157.367 79.6332 157.367 80.4142 156.586L156.586 80.4143C157.367 79.6333 157.367 78.3669 156.586 77.5859Z" fill="white"/>
</mask>
<g mask="url(#mask1_14_22)">
<path d="M156.586 77.5859L80.4142 1.41421C79.6332 0.633165 78.3668 0.633165 77.5858 1.41421L1.41412 77.5859C0.633076 78.3669 0.633076 79.6333 1.41412 80.4143L77.5858 156.586C78.3668 157.367 79.6332 157.367 80.4142 156.586L156.586 80.4143C157.367 79.6333 157.367 78.3669 156.586 77.5859Z" stroke="#111111" stroke-opacity="0.6" stroke-width="46"/>
</g>
<mask id="mask2_14_22" style="mask-type:alpha" maskUnits="userSpaceOnUse" x="11" y="11" width="137" height="136">
<path d="M145.958 38.9824L41.9053 11.1016C40.8384 10.8157 39.7417 11.4489 39.4558 12.5158L11.575 116.568C11.2892 117.635 11.9223 118.732 12.9893 119.018L117.042 146.899C118.109 147.184 119.205 146.551 119.491 145.484L147.372 41.4319C147.658 40.3649 147.025 39.2683 145.958 38.9824Z" fill="white"/>
</mask>
<g mask="url(#mask2_14_22)">
<path d="M145.958 38.9824L41.9054 11.1016C40.8384 10.8157 39.7418 11.4489 39.4559 12.5158L11.5751 116.568C11.2892 117.635 11.9224 118.732 12.9893 119.018L117.042 146.899C118.109 147.184 119.205 146.551 119.491 145.484L147.372 41.4319C147.658 40.3649 147.025 39.2683 145.958 38.9824Z" stroke="#111111" stroke-opacity="0.6" stroke-width="46"/>
</g>
<mask id="mask3_14_22" style="mask-type:alpha" maskUnits="userSpaceOnUse" x="3" y="3" width="152" height="152">
<path d="M154.523 97.7147L100.661 4.42382C100.109 3.46724 98.8855 3.13949 97.929 3.69177L4.63811 57.5533C3.68152 58.1056 3.35377 59.3287 3.90606 60.2853L57.7676 153.576C58.3198 154.533 59.543 154.861 60.4996 154.308L153.79 100.447C154.747 99.8944 155.075 98.6713 154.523 97.7147Z" fill="white"/>
</mask>
<g mask="url(#mask3_14_22)">
<path d="M154.523 97.7147L100.661 4.42382C100.109 3.46724 98.8855 3.13949 97.929 3.69177L4.63811 57.5533C3.68152 58.1056 3.35377 59.3287 3.90606 60.2853L57.7676 153.576C58.3198 154.533 59.543 154.861 60.4996 154.308L153.79 100.447C154.747 99.8944 155.075 98.6713 154.523 97.7147Z" stroke="#111111" stroke-opacity="0.6" stroke-width="46"/>
</g>
<mask id="mask4_14_22" style="mask-type:alpha" maskUnits="userSpaceOnUse" x="11" y="11" width="137" height="136">
<path d="M147.19 116.568L119.31 12.5158C119.024 11.4489 117.927 10.8157 116.86 11.1016L12.8077 38.9824C11.7408 39.2683 11.1076 40.3649 11.3935 41.4319L39.2743 145.484C39.5601 146.551 40.6568 147.184 41.7238 146.899L145.776 119.018C146.843 118.732 147.476 117.635 147.19 116.568Z" fill="white"/>
</mask>
<g mask="url(#mask4_14_22)">
<path d="M147.19 116.568L119.31 12.5158C119.024 11.4489 117.927 10.8157 116.86 11.1016L12.8077 38.9824C11.7408 39.2683 11.1076 40.3649 11.3935 41.4319L39.2743 145.484C39.5601 146.551 40.6568 147.184 41.7238 146.899L145.776 119.018C146.843 118.732 147.476 117.635 147.19 116.568Z" stroke="#111111" stroke-opacity="0.6" stroke-width="46"/>
</g>
<mask id="mask5_14_22" style="mask-type:alpha" maskUnits="userSpaceOnUse" x="3" y="3" width="152" height="152">
<path d="M100.66 153.576L154.522 60.2853C155.074 59.3287 154.747 58.1055 153.79 57.5532L60.4991 3.69172C59.5425 3.13943 58.3193 3.46718 57.767 4.42377L3.90552 97.7146C3.35323 98.6712 3.68098 99.8944 4.63757 100.447L97.9284 154.308C98.885 154.86 100.108 154.533 100.66 153.576Z" fill="white"/>
</mask>
<g mask="url(#mask5_14_22)">
<path d="M100.66 153.576L154.522 60.2853C155.074 59.3287 154.747 58.1055 153.79 57.5532L60.4991 3.69172C59.5425 3.13943 58.3193 3.46718 57.767 4.42377L3.90552 97.7146C3.35323 98.6712 3.68098 99.8944 4.63757 100.447L97.9284 154.308C98.885 154.86 100.108 154.533 100.66 153.576Z" stroke="#111111" stroke-opacity="0.6" stroke-width="46"/>
</g>
</svg>
